<?xml version="1.0" standalone="no"?>
<!DOCTYPE svg PUBLIC "-//W3C//DTD SVG 20010904//EN"
 "http://www.w3.org/TR/2001/REC-SVG-20010904/DTD/svg10.dtd">
<svg version="1.0" xmlns="http://www.w3.org/2000/svg"
 width="512.000000pt" height="512.000000pt" viewBox="0 0 512.000000 512.000000"
 preserveAspectRatio="xMidYMid meet">

<g transform="translate(0.000000,512.000000) scale(0.100000,-0.100000)"
fill="#725946" stroke="none">
<path d="M896 4334 c-165 -40 -304 -171 -362 -344 -18 -53 -19 -113 -19 -1430
l0 -1375 23 -65 c57 -166 198 -296 363 -335 56 -13 271 -15 1655 -15 1018 0
1611 4 1645 10 83 15 186 71 249 134 74 74 116 145 140 240 19 77 20 109 20
1090 0 1112 1 1091 -61 1207 -65 121 -171 210 -297 249 -62 19 -95 20 -932 20
l-868 0 -62 148 c-95 224 -124 274 -195 341 -69 64 -138 102 -230 126 -84 21
-979 21 -1069 -1z m1770 -1509 c30 -18 50 -40 68 -77 25 -49 26 -60 26 -205
l0 -153 155 0 c133 0 161 -3 193 -19 142 -73 151 -263 17 -346 -48 -29 -51
-30 -206 -34 l-157 -3 -4 -163 c-3 -163 -3 -163 -33 -207 -81 -116 -247 -116
-330 1 -30 43 -30 43 -33 206 l-4 163 -156 4 c-162 4 -194 11 -246 57 -49 43
-71 149 -45 218 14 38 56 81 101 104 32 16 59 19 193 19 l155 0 0 153 c0 143
2 156 25 203 54 107 175 141 281 79z"/>
</g>
</svg>
