<?xml version="1.0" encoding="utf-8"?>
<!-- Generator: Adobe Illustrator 26.0.3, SVG Export Plug-In . SVG Version: 6.00 Build 0)  -->
<svg version="1.1" id="Layer_1" xmlns="http://www.w3.org/2000/svg" xmlns:xlink="http://www.w3.org/1999/xlink" x="0px" y="0px"
	 viewBox="0 0 797.5 834.5" style="enable-background:new 0 0 797.5 834.5;" xml:space="preserve">
<style type="text/css">
	.st0{opacity:0.65;fill:#3F3D56;enable-background:new    ;}
	.st1{fill:#3F3D56;}
	.st2{opacity:5.000000e-02;enable-background:new    ;}
	.st3{fill:#725946;}
	.st4{opacity:0.1;enable-background:new    ;}
	.st5{fill:#333333;}
	.st6{fill:#FFB89B;}
	.st7{fill:#272A00;}
	.st8{fill:#627B83;}
	.st9{fill:none;}
</style>
<ellipse class="st0" cx="398.8" cy="775" rx="398.8" ry="59.5"/>
<ellipse class="st1" cx="398.8" cy="770.4" rx="398.8" ry="53.1"/>
<circle class="st1" cx="493.4" cy="304.5" r="293.6"/>
<circle class="st2" cx="493.4" cy="304.5" r="242.3"/>
<circle class="st2" cx="493.4" cy="304.5" r="198.6"/>
<circle class="st2" cx="493.4" cy="304.5" r="142.4"/>
<path class="st3" d="M202.5,330.8c0,0-23.1,64.9-12.9,88c10.2,23.1,26.5,45.3,26.5,45.3S210.2,335.1,202.5,330.8z"/>
<path class="st4" d="M202.5,330.8c0,0-23.1,64.9-12.9,88c10.2,23.1,26.5,45.3,26.5,45.3S210.2,335.1,202.5,330.8z"/>
<path class="st5" d="M218.8,481.3c0,0-1.8,16.3-2.5,17.1c-0.8,0.9,0.9,2.5,0,5.2c-0.9,2.6-1.8,5.9,0,6.8s-9.4,76-9.4,76
	s-27.4,35.9-16.3,92.3L194,736c0,0,26.5,1.8,26.5-7.7c0,0-1.8-11.1-1.8-16.3s4.3-5.2,1.8-7.7S218,700,218,700s4.3-3.4,3.4-4.3
	s7.7-61.5,7.7-61.5s9.4-9.4,9.4-14.5v-5.1c0,0,4.3-11.1,4.3-12s23.1-53,23.1-53l9.4,37.6l10.2,53.8c0,0,5.2,48.7,15.4,67.6
	c0,0,17.9,61.5,17.9,59.9c0-1.7,29.9-5.9,29-13.6c-0.9-7.7-17.9-115.6-17.9-115.6l4.3-159.9L218.8,481.3z"/>
<path class="st5" d="M195.6,731.7c0,0-23.1,45.3-7.7,47c15.4,1.8,21.3,1.8,28.2-5.2c3.7-3.7,11.3-8.8,17.4-12.6
	c7.4-4.5,11.5-12.9,10.7-21.4c-0.5-4.2-2-7.6-5.8-8c-10.2-0.9-22.2-10.2-22.2-10.2L195.6,731.7z"/>
<path class="st5" d="M323,765.1c0,0-23.1,45.3-7.7,47c15.4,1.8,21.3,1.8,28.2-5.2c3.7-3.7,11.3-8.8,17.4-12.6
	c7.4-4.5,11.5-12.9,10.7-21.4c-0.5-4.2-2-7.6-5.8-8c-10.2-0.9-22.2-10.2-22.2-10.2L323,765.1z"/>
<circle class="st6" cx="298.6" cy="220.7" r="35.9"/>
<path class="st6" d="M275.5,232.6c0,0-25.7,47.2-27.7,47.2s46.2,15.4,46.2,15.4s13.3-45.2,15.4-49.3L275.5,232.6z"/>
<path class="st3" d="M314.9,284.2c0,0-51.3-28.2-56.4-27.4c-5.1,0.9-59.9,48.7-59,68.4s7.7,52.2,7.7,52.2s2.5,90.6,7.7,91.4
	s-0.9,16.3,0.9,16.3c1.8,0,119.7,0,120.5-2.5C337.2,480,314.9,284.2,314.9,284.2z"/>
<path class="st6" d="M343.5,487.2c0,0,16.3,49.6,2.5,47.9c-13.7-1.7-19.7-42.7-19.7-42.7L343.5,487.2z"/>
<path class="st3" d="M300,281.3c0,0-31.6,6.8-26.5,49.6c5.2,42.7,14.5,85.5,14.5,85.5l31.6,69.2l3.4,12.9l23.1-5.9L329,393.3
	c0,0-5.9-106-13.6-109.4C310.5,281.8,305.2,280.9,300,281.3z"/>
<polygon class="st4" points="280.7,415.1 320,485.1 286.9,411.3 "/>
<path class="st7" d="M334.3,210.2l0.1-2.7l5.5,1.4c-0.1-1.8-1-3.4-2.4-4.5l5.8-0.3c-9.8-14-25-23.4-42-26
	c-12.6-1.8-26.6,0.8-35.2,10.1c-4.2,4.6-6.8,10.3-8.7,16.2c-3.4,10.8-4.2,23.8,3,32.5c7.3,9,20.1,10.7,31.5,11.8
	c4.1,0.4,8.3,0.8,12.1-0.8c0.4-4.3-0.1-8.7-1.7-12.7c-0.6-1.3-0.9-2.6-0.9-4.1c0.5-3.4,5.1-4.3,8.5-3.8s7.5,1.2,9.8-1.5
	c1.6-1.8,1.5-4.5,1.7-6.8C322.1,212.5,334.3,211.6,334.3,210.2z"/>
<circle class="st8" cx="701.8" cy="732.9" r="41.9"/>
<circle class="st8" cx="63.1" cy="721.3" r="41.9"/>
<ellipse transform="matrix(0.9985 -5.530039e-02 5.530039e-02 0.9985 -36.7224 4.5083)" class="st8" cx="63.1" cy="665.8" rx="30.2" ry="30.2"/>
<circle class="st8" cx="63.1" cy="619" r="21.4"/>
<rect x="363.9" y="262.2" class="st9" width="259" height="75"/>
</svg>
