<?xml version="1.0" standalone="no"?>
<!DOCTYPE svg PUBLIC "-//W3C//DTD SVG 20010904//EN"
 "http://www.w3.org/TR/2001/REC-SVG-20010904/DTD/svg10.dtd">
<svg version="1.0" xmlns="http://www.w3.org/2000/svg"
 width="512.000000pt" height="512.000000pt" viewBox="0 0 512.000000 512.000000"
 preserveAspectRatio="xMidYMid meet">

<g transform="translate(0.000000,512.000000) scale(0.100000,-0.100000)"
fill="#725946" stroke="none">
<path d="M720 4828 c-18 -13 -43 -36 -54 -51 l-21 -28 -3 -1647 c-2 -1168 1
-1666 8 -1712 37 -216 217 -409 435 -465 49 -12 143 -15 551 -15 l491 0 33 23
c48 32 72 69 77 119 7 58 -23 118 -74 149 l-38 24 -490 5 c-482 5 -491 5 -531
27 -23 12 -58 41 -77 64 -70 81 -67 39 -67 981 l0 848 584 0 583 0 33 23 c48
32 72 69 77 119 7 58 -23 118 -74 149 l-38 24 -582 3 -583 3 -2 639 c-3 630
-3 639 -24 667 -35 48 -82 73 -134 73 -32 0 -57 -7 -80 -22z"/>
<path d="M2704 4222 c-104 -37 -182 -113 -227 -223 -22 -53 -22 -63 -25 -612
-3 -583 0 -633 40 -716 33 -70 122 -153 193 -182 l60 -24 725 0 725 0 65 31
c82 39 144 101 184 184 l31 65 0 485 0 485 -31 65 c-39 83 -101 145 -184 184
l-65 31 -266 5 -265 5 -105 89 c-57 49 -129 100 -159 115 l-55 26 -295 2
c-261 3 -301 1 -346 -15z"/>
<path d="M2729 2037 c-107 -30 -209 -122 -251 -225 l-23 -57 0 -595 0 -595 23
-57 c42 -104 137 -194 235 -223 76 -22 1428 -23 1504 0 114 34 208 129 244
246 19 63 20 88 17 530 l-3 464 -27 57 c-55 118 -159 196 -289 217 -35 6 -161
11 -280 11 l-215 0 -100 85 c-54 47 -128 100 -164 118 l-64 32 -281 2 c-201 2
-293 -1 -326 -10z"/>
</g>
</svg>
