<svg xmlns="http://www.w3.org/2000/svg" version="1.1" xmlns:xlink="http://www.w3.org/1999/xlink" xmlns:svgjs="http://svgjs.com/svgjs" width="2160" height="900" preserveAspectRatio="none" viewBox="0 0 2160 900"><g clip-path="url(&quot;#SvgjsClipPath1005&quot;)" fill="none"><circle r="150" cx="70.91" cy="106.98" stroke="#ffdcb2" stroke-opacity="1" stroke-width="2"></circle><circle r="150" cx="648.96" cy="555.93" stroke="#ffdcb2" stroke-opacity="1" stroke-width="2"></circle><circle r="150" cx="1263.6" cy="1345.49" stroke="#ffdcb2" stroke-opacity="1" stroke-width="2"></circle><circle r="295.155" cx="895.54" cy="541.72" stroke="#ffdcb2" stroke-opacity="1" stroke-width="2"></circle><circle r="295.635" cx="1509.13" cy="200.91" stroke="#ffdcb2" stroke-opacity="1" stroke-width="2"></circle><circle r="140.855" cx="1503.21" cy="762.02" stroke="#ffdcb2" stroke-opacity="1" stroke-width="2"></circle><circle r="197.295" cx="1047.55" cy="343.12" stroke="#ffdcb2" stroke-opacity="1" stroke-width="2"></circle><circle r="216.22" cx="563.79" cy="727.24" stroke="#ffdcb2" stroke-opacity="1" stroke-width="2"></circle><circle r="135.95" cx="2132.29" cy="632.23" stroke="#ffdcb2" stroke-opacity="1" stroke-width="2"></circle><circle r="78.46" cx="567.04" cy="833.89" stroke="#ffdcb2" stroke-opacity="1" stroke-width="2"></circle><circle r="225.725" cx="1969.24" cy="424.58" stroke="#ffdcb2" stroke-opacity="1" stroke-width="2"></circle><circle r="185.42" cx="776.35" cy="331.4" stroke="#ffdcb2" stroke-opacity="1" stroke-width="2"></circle><circle r="87.785" cx="1747.35" cy="504.94" stroke="#ffdcb2" stroke-opacity="1" stroke-width="2"></circle><circle r="253.95" cx="1831.34" cy="93.33" stroke="#ffdcb2" stroke-opacity="1" stroke-width="2"></circle><circle r="211.54" cx="225.67" cy="379.85" stroke="#ffdcb2" stroke-opacity="1" stroke-width="2"></circle><circle r="270.305" cx="508.38" cy="321.04" stroke="#ffdcb2" stroke-opacity="1" stroke-width="2"></circle><circle r="156.895" cx="425.16" cy="512.87" stroke="#ffdcb2" stroke-opacity="1" stroke-width="2"></circle><circle r="204.565" cx="1307.69" cy="796.44" stroke="#ffdcb2" stroke-opacity="1" stroke-width="2"></circle></g><defs><clipPath id="SvgjsClipPath1005"><rect width="2160" height="900" x="0" y="0"></rect></clipPath></defs></svg>