<svg xmlns="http://www.w3.org/2000/svg" version="1.1" xmlns:xlink="http://www.w3.org/1999/xlink" xmlns:svgjs="http://svgjs.com/svgjs" width="2160" height="900" preserveAspectRatio="none" viewBox="0 0 2160 900"><g clip-path="url(&quot;#SvgjsClipPath1333&quot;)" fill="none"><circle r="150" cx="94.22" cy="103.99" stroke="#ffdcb2" stroke-opacity="1" stroke-width="2"></circle><circle r="150" cx="609.42" cy="488.38" stroke="#ffdcb2" stroke-opacity="1" stroke-width="2"></circle><circle r="150" cx="1138.59" cy="1248.8" stroke="#ffdcb2" stroke-opacity="1" stroke-width="2"></circle><circle r="142.96" cx="939.62" cy="625.62" stroke="#ffdcb2" stroke-opacity="1" stroke-width="2"></circle><circle r="255.06" cx="1190.04" cy="158.93" stroke="#ffdcb2" stroke-opacity="1" stroke-width="2"></circle><circle r="232.995" cx="263.07" cy="808.19" stroke="#ffdcb2" stroke-opacity="1" stroke-width="2"></circle><circle r="171.74" cx="1105.12" cy="30.71" stroke="#ffdcb2" stroke-opacity="1" stroke-width="2"></circle><circle r="100.095" cx="990.77" cy="542.51" stroke="#ffdcb2" stroke-opacity="1" stroke-width="2"></circle><circle r="136.625" cx="1747.89" cy="134.11" stroke="#ffdcb2" stroke-opacity="1" stroke-width="2"></circle><circle r="297.01" cx="2094.73" cy="553.8" stroke="#ffdcb2" stroke-opacity="1" stroke-width="2"></circle><circle r="189.795" cx="2137.24" cy="477.05" stroke="#ffdcb2" stroke-opacity="1" stroke-width="2"></circle><circle r="254.855" cx="1935" cy="514.21" stroke="#ffdcb2" stroke-opacity="1" stroke-width="2"></circle><circle r="151.25" cx="1629.86" cy="569.4" stroke="#ffdcb2" stroke-opacity="1" stroke-width="2"></circle><circle r="156.31" cx="1949.09" cy="201.49" stroke="#ffdcb2" stroke-opacity="1" stroke-width="2"></circle><circle r="285.735" cx="723.75" cy="730.67" stroke="#ffdcb2" stroke-opacity="1" stroke-width="2"></circle><circle r="197.1" cx="740.12" cy="38.32" stroke="#ffdcb2" stroke-opacity="1" stroke-width="2"></circle><circle r="172.21" cx="1083.68" cy="501.11" stroke="#ffdcb2" stroke-opacity="1" stroke-width="2"></circle><circle r="127.355" cx="743.29" cy="166.19" stroke="#ffdcb2" stroke-opacity="1" stroke-width="2"></circle></g><defs><clipPath id="SvgjsClipPath1333"><rect width="2160" height="900" x="0" y="0"></rect></clipPath></defs></svg>